<svg xmlns="http://www.w3.org/2000/svg" viewBox="0 0 24 24" width="24" height="24">
  <path fill="black" d="M16.25,0.646c-1.243-1.243-3.251-1.243-4.494,0l-9.844,9.844c-1.243,1.243-1.243,3.251,0,4.494l6.303,6.303
    c0.404,0.404,0.936,0.646,1.497,0.646c0.56,0,1.093-0.242,1.497-0.646l9.844-9.844c1.243-1.243,1.243-3.251,0-4.494
    L16.25,0.646z M2.814,12.228l9.844-9.844c0.823-0.823,2.161-0.823,2.984,0l3.303,3.303l-12.828,12.828L2.814,15.211
    C1.991,14.388,1.991,12.951,2.814,12.228z M20.531,14.313L13.719,21.125l-3.303-3.303l6.812-6.812l3.303,3.303
    C21.354,12.152,21.354,13.49,20.531,14.313z"/>
</svg>
