<svg xmlns="http://www.w3.org/2000/svg" viewBox="0 0 24 24" width="24" height="24">
  <path fill="black" d="M21.707,2.293l-2-2c-0.39-0.39-1.023-0.39-1.414,0l-14,14C4.112,14.488,4,14.734,4,15v4.5C4,19.776,4.224,20,4.5,20H9
    c0.266,0,0.512-0.112,0.707-0.293l14-14C22.098,3.316,22.098,2.684,21.707,2.293z M9.707,18H5V13.293L15.293,3L19.707,7.414
    L9.707,18z M20.707,6.707l-2-2L19.293,4L21.293,6L20.707,6.707z"/>
  <path fill="black" d="M3,21.5C3,21.776,3.224,22,3.5,22h17c0.276,0,0.5-0.224,0.5-0.5v-1c0-0.276-0.224-0.5-0.5-0.5h-17
    C3.224,20,3,20.224,3,20.5V21.5z"/>
</svg>
