<svg xmlns="http://www.w3.org/2000/svg" viewBox="0 0 24 24" width="24" height="24">
  <path fill="black" d="M9 3V2C9 1.44772 9.44772 1 10 1H14C14.5523 1 15 1.44772 15 2V3H19C19.5523 3 20 3.44772 20 4C20 4.55228 19.5523 5 19 5H5C4.44772 5 4 4.55228 4 4C4 3.44772 4.44772 3 5 3H9ZM16 3V2H8V3H16Z" />
  <path fill="black" d="M5 6H19L18.1667 20.2505C18.0883 21.6094 16.9976 22.6667 15.638 22.6667H8.36195C7.00235 22.6667 5.9117 21.6094 5.83333 20.2505L5 6ZM7 6.5V20.25C7 20.9414 7.55573 21.5 8.36195 21.5H15.638C16.4443 21.5 17 20.9414 17 20.25V6.5H7ZM10 9C10.5523 9 11 9.44772 11 10V18C11 18.5523 10.5523 19 10 19C9.44772 19 9 18.5523 9 18V10C9 9.44772 9.44772 9 10 9ZM14 9C14.5523 9 15 9.44772 15 10V18C15 18.5523 14.5523 19 14 19C13.4477 19 13 18.5523 13 18V10C13 9.44772 13.4477 9 14 9Z" />
</svg>
